<svg xmlns="http://www.w3.org/2000/svg" width="18.894" height="14.5" viewBox="0 0 18.894 14.5">
  <g id="logout" transform="translate(-1.25 -3.75)">
    <path id="Path_30" data-name="Path 30" d="M13.114,11.909a.659.659,0,0,0-.659-.659H1.909a.659.659,0,1,0,0,1.318H12.455A.659.659,0,0,0,13.114,11.909Z" transform="translate(0 -0.909)" fill="#88c2bb" fill-rule="evenodd"/>
    <path id="Path_31" data-name="Path 31" d="M5.451,7.458a.659.659,0,0,0-.932,0L1.443,10.534a.659.659,0,0,0,0,.932l3.076,3.076a.659.659,0,0,0,.932-.932L2.841,11l2.61-2.61A.659.659,0,0,0,5.451,7.458Zm7.527-2.39A5.839,5.839,0,0,0,7.77,8.3.659.659,0,0,1,6.594,7.7,7.153,7.153,0,0,1,20.144,11a7.335,7.335,0,0,1-.257,1.931.659.659,0,1,1-1.272-.347A6.02,6.02,0,0,0,18.826,11,5.89,5.89,0,0,0,12.978,5.068ZM6.885,13.411a.659.659,0,0,1,.886.291,5.839,5.839,0,0,0,5.208,3.23,5.765,5.765,0,0,0,3.475-1.16.659.659,0,1,1,.791,1.054,7.083,7.083,0,0,1-4.266,1.424A7.157,7.157,0,0,1,6.594,14.3.659.659,0,0,1,6.885,13.411Z" transform="translate(0)" fill="#88c2bb" fill-rule="evenodd"/>
  </g>
</svg>
