<svg xmlns="http://www.w3.org/2000/svg" width="17.778" height="16" viewBox="0 0 17.778 16">
  <path id="message" d="M12.62,0a5.193,5.193,0,0,1,5.158,5.2h0V6.5l-.006.086a.631.631,0,0,1-.623.548h0l-.008-.016-.1-.008a.628.628,0,0,1-.346-.178.636.636,0,0,1-.184-.448h0V5.2A3.946,3.946,0,0,0,12.62,1.275H5.158A3.946,3.946,0,0,0,1.266,5.2h0V10.8a3.946,3.946,0,0,0,3.892,3.921H12.62A3.946,3.946,0,0,0,16.512,10.8a.636.636,0,0,1,1.266,0A5.193,5.193,0,0,1,12.62,16H5.158A5.185,5.185,0,0,1,0,10.8H0V5.2A5.177,5.177,0,0,1,5.158,0H12.62Zm-8.8,4.788a.618.618,0,0,1,.46.138h0l3.7,2.947a1.266,1.266,0,0,0,1.573,0h0L13.2,4.927h.008l.077-.053A.632.632,0,0,1,14,5.917h0L10.34,8.871a2.525,2.525,0,0,1-3.184,0h0L3.491,5.917l-.068-.065a.645.645,0,0,1-.027-.83A.62.62,0,0,1,3.817,4.788Z" fill="#8d8d8d"/>
</svg>
