<svg xmlns="http://www.w3.org/2000/svg" width="14.999" height="17.645" viewBox="0 0 14.999 17.645">
  <path id="notification" d="M8.947,15.5a.68.68,0,0,1,.882-.018.666.666,0,0,1,.09.943,3.14,3.14,0,0,1-2.458,1.219h0l-.192-.008a3.138,3.138,0,0,1-2.258-1.211h0l-.058-.081a.666.666,0,0,1,.148-.862.679.679,0,0,1,.951.089,1.814,1.814,0,0,0,.368.365,1.755,1.755,0,0,0,2.45-.365h.008ZM7.468,0c2.708,0,5.745,1.91,6.09,4.976h0v1.6a3.312,3.312,0,0,0,.783,1.553.592.592,0,0,1,.063.085A3.581,3.581,0,0,1,15,10.022h0l-.023.163a3.653,3.653,0,0,1-.83,2.43,4.311,4.311,0,0,1-2.755,1.359,35.874,35.874,0,0,1-7.827,0A4.263,4.263,0,0,1,.854,12.615,3.6,3.6,0,0,1,0,10.2H0v-.109A3.706,3.706,0,0,1,.643,8.237h0l.063-.078a3.382,3.382,0,0,0,.783-1.553h0v-1.6l.043-.089a.675.675,0,0,1,1.248.229h0v1.6a.4.4,0,0,1,0,.085A4.643,4.643,0,0,1,1.7,8.99a2.23,2.23,0,0,0-.344,1.1h0v.171a2.27,2.27,0,0,0,.517,1.514,2.93,2.93,0,0,0,1.832.869,35.314,35.314,0,0,0,7.577,0,2.937,2.937,0,0,0,1.871-.908,2.247,2.247,0,0,0,.493-1.467h0v-.179a2.314,2.314,0,0,0-.337-1.11,4.646,4.646,0,0,1-1.143-2.158.406.406,0,0,1,0-.085h0V5.131c-.227-2.344-2.583-3.8-4.634-3.8a5.081,5.081,0,0,0-2.489.644h0l-.093.046a.678.678,0,0,1-.592-.041A.665.665,0,0,1,4.384.815,6.4,6.4,0,0,1,7.468,0Z" fill="#8d8d8d"/>
</svg>
