<svg xmlns="http://www.w3.org/2000/svg" width="16.209" height="17.2" viewBox="0 0 16.209 17.2">
  <g id="setting" transform="translate(-0.073 -0.178)">
    <path id="Path_33" data-name="Path 33" d="M15.369,5.228l-.518-.9a1.592,1.592,0,0,0-2.171-.587h0a1.585,1.585,0,0,1-2.171-.564,1.525,1.525,0,0,1-.213-.762h0A1.592,1.592,0,0,0,8.7.778H7.658A1.585,1.585,0,0,0,6.073,2.37h0A1.592,1.592,0,0,1,4.481,3.94a1.524,1.524,0,0,1-.762-.213h0a1.592,1.592,0,0,0-2.171.587l-.556.914A1.592,1.592,0,0,0,1.571,7.4h0a1.592,1.592,0,0,1,0,2.758h0a1.585,1.585,0,0,0-.579,2.164h0l.526.907a1.592,1.592,0,0,0,2.171.617h0a1.577,1.577,0,0,1,2.164.579,1.524,1.524,0,0,1,.213.762h0a1.592,1.592,0,0,0,1.592,1.592H8.7a1.592,1.592,0,0,0,1.592-1.585h0A1.585,1.585,0,0,1,11.887,13.6a1.622,1.622,0,0,1,.762.213h0a1.592,1.592,0,0,0,2.171-.579h0l.549-.914a1.585,1.585,0,0,0-.579-2.171h0a1.585,1.585,0,0,1-.579-2.171A1.562,1.562,0,0,1,14.79,7.4h0a1.592,1.592,0,0,0,.579-2.164h0Z" transform="translate(0 0)" fill="none" stroke="#8d8d8d" stroke-linecap="round" stroke-linejoin="round" stroke-width="1.2" fill-rule="evenodd"/>
    <circle id="Ellipse_7" data-name="Ellipse 7" cx="2.636" cy="2.636" r="2.636" transform="translate(5.548 6.142)" fill="none" stroke="#8d8d8d" stroke-linecap="round" stroke-linejoin="round" stroke-width="1.2"/>
  </g>
</svg>
